<svg width="58" height="58" viewBox="0 0 58 58" fill="none" xmlns="http://www.w3.org/2000/svg">
<rect x="0.5" y="0.5" width="57" height="57" rx="28.5" stroke="#E1E1E1"/>
<path d="M39.7855 26.844H38.9V26.8H29V31.2H35.215C34.3075 33.763 31.871 35.6 29 35.6C25.3535 35.6 22.4 32.6465 22.4 29C22.4 25.3535 25.3535 22.4 29 22.4C30.683 22.4 32.212 23.0325 33.378 24.072L36.491 20.959C34.5275 19.1275 31.8985 18 29 18C22.9225 18 18 22.9225 18 29C18 35.0775 22.9225 40 29 40C35.0775 40 40 35.072 40 29C40 28.263 39.923 27.5425 39.7855 26.844Z" fill="#FBC02D"/>
<path d="M19.2695 23.8795L22.883 26.5305C23.862 24.1105 26.227 22.4 28.999 22.4C30.682 22.4 32.211 23.0325 33.377 24.072L36.49 20.959C34.5265 19.1275 31.8975 18 28.999 18C24.775 18 21.112 20.387 19.2695 23.8795Z" fill="#E53935"/>
<path d="M29.0009 40C31.8444 40 34.4239 38.911 36.3764 37.1455L32.9719 34.2635C31.8664 35.0995 30.4969 35.6 29.0009 35.6C26.1409 35.6 23.7099 33.774 22.7969 31.2275L19.2109 33.994C21.0314 37.558 24.7274 40 29.0009 40Z" fill="#4CAF50"/>
<path d="M39.7851 26.8438L39.7741 26.7998H28.9941V31.1998H35.2091C34.7746 32.4318 33.9826 33.4933 32.9596 34.2633L36.3641 37.1453C36.1221 37.3653 39.9886 34.4998 39.9886 28.9998C39.9886 28.2628 39.9116 27.5423 39.7741 26.8438H39.7851Z" fill="#1565C0"/>
</svg>

