<svg width="66" height="66" viewBox="0 0 66 66" fill="none" xmlns="http://www.w3.org/2000/svg">
<circle cx="33" cy="33" r="33" fill="#D9F4F9"/>
<g clip-path="url(#clip0_207_5221)">
<path d="M33 20C31.4681 20 30.1915 21.2642 30.1915 22.7812C30.1915 23.1183 30.2766 23.4554 30.4043 23.7925C27.1277 24.8882 24.7447 27.9222 24.7447 31.5462V36.8558C23.4255 37.0665 22.4468 38.2042 22.4468 39.5105C22.4468 40.9854 23.6809 42.2075 25.1702 42.2075H28.4894C28.7447 44.3144 30.5745 46 32.7872 46C35 46 36.7872 44.3566 37.0851 42.2075H40.9149C42.4043 42.2075 43.6383 40.9854 43.6383 39.5105C43.6383 38.1621 42.617 37.0243 41.3404 36.8558V31.5462C41.3404 27.9222 38.9574 24.8882 35.6809 23.7925C35.8085 23.4976 35.8936 23.1605 35.8936 22.7812C35.8511 21.2642 34.5745 20 33 20ZM33 22.2334C33.3404 22.2334 33.5532 22.4862 33.5532 22.7812C33.5532 23.0762 33.3404 23.329 33 23.329C32.7021 23.329 32.4468 23.0762 32.4468 22.7812C32.4468 22.4862 32.7021 22.2334 33 22.2334ZM17.2128 23.624C16.7447 23.624 16.3617 23.8768 16.1915 24.2982C15.4255 26.0259 15 27.9222 15 29.8606C15 31.799 15.383 33.6532 16.1915 35.423C16.4043 36.013 17.0426 36.3079 17.6383 36.0551C18.234 35.8444 18.5319 35.2123 18.2766 34.6224C18.2766 34.6224 18.2766 34.5381 18.234 34.4959C17.5957 33.0211 17.2553 31.4619 17.2553 29.8606C17.2553 28.2593 17.5957 26.658 18.234 25.2253C18.4894 24.6775 18.234 24.0032 17.6809 23.7504C17.5532 23.6661 17.383 23.6661 17.2128 23.6661V23.624ZM48.7447 23.624C48.1064 23.624 47.6383 24.1718 47.6809 24.7618C47.6809 24.8882 47.6809 25.0567 47.766 25.1831C48.4043 26.658 48.7447 28.2172 48.7447 29.8185C48.7447 31.4198 48.4043 32.9789 47.766 34.4538C47.4681 35.0016 47.6809 35.6758 48.234 35.9708C48.7872 36.2658 49.4681 36.0551 49.766 35.5073C49.766 35.5073 49.766 35.423 49.8085 35.3809C50.5745 33.6532 51 31.7569 51 29.8185C51 27.8801 50.617 26.0259 49.8085 24.2561C49.6383 23.8347 49.2128 23.5818 48.7447 23.5818V23.624ZM32.9574 25.5624C36.2766 25.5624 38.9149 28.2172 38.9149 31.5041V37.9092C38.9149 38.5413 39.4255 39.0049 40.0213 39.0049H40.7447C41.0426 39.0049 41.2128 39.2156 41.2128 39.4684C41.2128 39.7212 41.0426 39.9319 40.7447 39.9319H25.0426C24.7447 39.9319 24.5745 39.7212 24.5745 39.4684C24.5745 39.2156 24.7872 39.0049 25.0426 39.0049H25.766C26.4043 39.0049 26.8723 38.4992 26.8723 37.9092V31.5041C26.8723 28.2172 29.5106 25.5624 32.8298 25.5624H32.9574ZM21.1702 25.6045C20.7021 25.6045 20.3191 25.8995 20.1489 26.3209C19.6809 27.4587 19.4255 28.6386 19.4255 29.8606C19.4255 31.0827 19.6809 32.2626 20.1489 33.4003C20.3617 33.9903 21 34.2853 21.5957 34.0324C22.1915 33.8217 22.4894 33.1896 22.234 32.5997C22.234 32.5997 22.234 32.5575 22.234 32.5154C21.8936 31.6726 21.6809 30.7455 21.6809 29.8185C21.6809 28.8914 21.8511 27.9643 22.234 27.1216C22.4894 26.5737 22.234 25.8995 21.6383 25.6467C21.5106 25.6045 21.3404 25.5624 21.1702 25.5624V25.6045ZM44.8298 25.6045C44.1915 25.6045 43.7234 26.1102 43.7234 26.7423C43.7234 26.9109 43.7234 27.0373 43.8085 27.1637C44.1489 28.0065 44.3617 28.9335 44.3617 29.8606C44.3617 30.7877 44.1915 31.7147 43.8085 32.5575C43.5532 33.1475 43.8085 33.7796 44.4043 34.0324C45 34.2853 45.6383 34.0324 45.8936 33.4425C46.3617 32.3047 46.617 31.1248 46.617 29.9028C46.617 28.6807 46.3617 27.5008 45.8936 26.363C45.7234 25.9417 45.2979 25.6467 44.8298 25.6467V25.6045ZM30.7447 42.2075H34.7872C34.5745 43.0924 33.766 43.7666 32.7872 43.7666C31.8085 43.7666 31 43.1345 30.7872 42.2075H30.7447Z" fill="#091E41"/>
</g>
<defs>
<clipPath id="clip0_207_5221">
<rect width="36" height="26" fill="white" transform="translate(15 20)"/>
</clipPath>
</defs>
</svg>
