<svg width="42" height="42" viewBox="0 0 42 42" fill="none" xmlns="http://www.w3.org/2000/svg">
<g clip-path="url(#clip0_194_3355)">
<path d="M21 7.0498C26.4824 7.0498 30.9502 11.5176 30.9502 17V21.7598C30.9502 22.3033 31.1656 22.8159 31.5547 23.2051L31.7939 23.4443V23.4453C32.5349 24.1962 32.9502 25.1837 32.9502 26.2402V27C32.9502 29.1824 31.1824 30.9502 29 30.9502H13C10.8176 30.9502 9.0498 29.1824 9.0498 27V26.2402C9.0498 25.1837 9.4641 24.1952 10.2051 23.4443L10.4443 23.2051L10.4453 23.2061C10.8351 22.8264 11.0498 22.3029 11.0498 21.7598V17C11.0498 11.5176 15.5176 7.0498 21 7.0498ZM21 8.9502C16.5624 8.9502 12.9502 12.5624 12.9502 17V21.7598C12.9502 22.8163 12.5349 23.8038 11.7939 24.5547L11.5547 24.7939C11.1649 25.1736 10.9502 25.6971 10.9502 26.2402V27C10.9502 28.1276 11.8724 29.0498 13 29.0498H29C30.1276 29.0498 31.0498 28.1276 31.0498 27V26.2402C31.0498 25.6967 30.8344 25.1841 30.4453 24.7949L30.2051 24.5547H30.2061C29.4651 23.8038 29.0498 22.8163 29.0498 21.7598V17C29.0498 12.5624 25.4376 8.9502 21 8.9502Z" fill="#4D4141" stroke="black" stroke-width="0.1"/>
<path d="M18 33.0498H24C24.5224 33.0498 24.9502 33.4776 24.9502 34C24.9502 34.5224 24.5224 34.9502 24 34.9502H18C17.4776 34.9502 17.0498 34.5224 17.0498 34C17.0498 33.4776 17.4776 33.0498 18 33.0498Z" fill="#4D4141" stroke="black" stroke-width="0.1"/>
</g>
<defs>
<clipPath id="clip0_194_3355">
<rect width="24" height="28" fill="white" transform="translate(9 7)"/>
</clipPath>
</defs>
</svg>

