<svg width="36" height="36" viewBox="0 0 36 36" fill="none" xmlns="http://www.w3.org/2000/svg">
<circle cx="18" cy="18" r="18" fill="#35373C"/>
<path d="M24.8075 14.3975L23.4504 15.7542L19.8272 12.1322L21.1843 10.7755C21.434 10.5259 21.8373 10.5259 22.0869 10.7755L24.8011 13.4888C25.0508 13.7384 25.0508 14.1415 24.8011 14.3911L24.8075 14.3975ZM11.6846 20.2785C11.6014 20.3616 11.5438 20.464 11.5182 20.5728L10.6092 24.1948C10.5516 24.4124 10.6156 24.6428 10.7756 24.8028C10.8973 24.9243 11.0637 24.9883 11.2301 24.9883C11.2813 24.9883 11.3326 24.9883 11.3838 24.9691L15.007 24.0668C15.1222 24.0412 15.2246 23.9836 15.3014 23.9005L22.5414 16.6629L18.9182 13.0409L11.6846 20.2785Z" fill="white"/>
</svg>
