<svg width="28" height="28" viewBox="0 0 28 28" fill="none" xmlns="http://www.w3.org/2000/svg">
<rect width="28" height="28" fill="white"/>
<g clip-path="url(#clip0_194_2298)">
<path d="M12.2003 20C12.1312 20 12.0621 19.9907 11.993 19.9719C11.6387 19.8728 11.4443 19.5436 11.5577 19.236L13.3592 14.4049C13.4737 14.0982 13.8528 13.928 14.2092 14.0281C14.5646 14.1272 14.759 14.4564 14.6445 14.764L12.843 19.5941C12.7501 19.842 12.4855 19.9991 12.2003 19.9991V20Z" fill="white"/>
<path d="M12.2015 20C11.9164 20 11.6517 19.8429 11.5589 19.5951L9.75843 14.764C9.64394 14.4573 9.83835 14.1281 10.1926 14.029C10.549 13.9289 10.9281 14.0991 11.0426 14.4059L12.8441 19.236C12.9586 19.5436 12.7631 19.8728 12.4089 19.9719C12.3397 19.9916 12.2695 20 12.2004 20H12.2015Z" fill="white"/>
<path d="M15.7995 20C15.7304 20 15.6612 19.9907 15.5921 19.9719C15.2368 19.8728 15.0424 19.5436 15.1569 19.236L16.9573 14.4049C17.0718 14.0982 17.4519 13.928 17.8073 14.0281C18.1626 14.1272 18.357 14.4564 18.2425 14.764L16.441 19.5941C16.3481 19.842 16.0835 19.9991 15.7984 19.9991L15.7995 20Z" fill="white"/>
<path d="M15.8011 20C15.516 20 15.2514 19.8429 15.1585 19.5951L13.357 14.764C13.2425 14.4564 13.438 14.1272 13.7922 14.0281C14.1486 13.928 14.5277 14.0982 14.6422 14.4049L16.4437 19.235C16.5582 19.5427 16.3627 19.8719 16.0085 19.971C15.9393 19.9907 15.8691 19.9991 15.8011 19.9991V20Z" fill="white"/>
<path d="M17.8261 17.7014H10.175C9.80241 17.7014 9.5 17.4395 9.5 17.1169C9.5 16.7943 9.80241 16.5324 10.175 16.5324H17.825C18.1976 16.5324 18.5 16.7943 18.5 17.1169C18.5 17.4395 18.1976 17.7014 17.825 17.7014H17.8261Z" fill="white"/>
</g>
<g clip-path="url(#clip1_194_2298)">
<path d="M20.4167 4.83333H19.7383V3.91667C19.7383 3.4125 19.3258 3 18.8217 3C18.3175 3 17.905 3.4125 17.905 3.91667V4.83333H10.095V3.91667C10.095 3.4125 9.6825 3 9.17833 3C8.67417 3 8.26167 3.4125 8.26167 3.91667V4.83333H7.58333C5.05333 4.83333 3 6.88667 3 9.41667V20.4167C3 22.9467 5.05333 25 7.58333 25H20.4167C22.9467 25 25 22.9467 25 20.4167V9.41667C25 6.88667 22.9467 4.83333 20.4167 4.83333Z" fill="#326789"/>
<g clip-path="url(#clip2_194_2298)">
<path d="M12.2003 19C12.1312 19 12.0621 18.9907 11.993 18.9719C11.6387 18.8728 11.4443 18.5436 11.5577 18.236L13.3592 13.4049C13.4737 13.0982 13.8528 12.928 14.2092 13.0281C14.5646 13.1272 14.759 13.4564 14.6445 13.764L12.843 18.5941C12.7501 18.842 12.4855 18.9991 12.2003 18.9991V19Z" fill="white"/>
<path d="M12.2015 19C11.9164 19 11.6517 18.8429 11.5589 18.5951L9.75843 13.764C9.64394 13.4573 9.83835 13.1281 10.1926 13.029C10.549 12.9289 10.9281 13.0991 11.0426 13.4059L12.8441 18.236C12.9586 18.5436 12.7631 18.8728 12.4089 18.9719C12.3397 18.9916 12.2695 19 12.2004 19H12.2015Z" fill="white"/>
<path d="M15.7995 19C15.7304 19 15.6612 18.9907 15.5921 18.9719C15.2368 18.8728 15.0424 18.5436 15.1569 18.236L16.9573 13.4049C17.0718 13.0982 17.4519 12.928 17.8073 13.0281C18.1626 13.1272 18.357 13.4564 18.2425 13.764L16.441 18.5941C16.3481 18.842 16.0835 18.9991 15.7984 18.9991L15.7995 19Z" fill="white"/>
<path d="M15.8011 19C15.516 19 15.2514 18.8429 15.1585 18.5951L13.357 13.764C13.2425 13.4564 13.438 13.1272 13.7922 13.0281C14.1486 12.928 14.5277 13.0982 14.6422 13.4049L16.4437 18.235C16.5582 18.5427 16.3627 18.8719 16.0085 18.971C15.9393 18.9907 15.8691 18.9991 15.8011 18.9991V19Z" fill="white"/>
<path d="M17.8261 16.7014H10.175C9.80241 16.7014 9.5 16.4395 9.5 16.1169C9.5 15.7943 9.80241 15.5324 10.175 15.5324H17.825C18.1976 15.5324 18.5 15.7943 18.5 16.1169C18.5 16.4395 18.1976 16.7014 17.825 16.7014H17.8261Z" fill="white"/>
</g>
</g>
<defs>
<clipPath id="clip0_194_2298">
<rect width="9" height="6" fill="white" transform="translate(9.5 14)"/>
</clipPath>
<clipPath id="clip1_194_2298">
<rect width="22" height="22" fill="white" transform="translate(3 3)"/>
</clipPath>
<clipPath id="clip2_194_2298">
<rect width="9" height="6" fill="white" transform="translate(9.5 13)"/>
</clipPath>
</defs>
</svg>

