<svg width="66" height="66" viewBox="0 0 66 66" fill="none" xmlns="http://www.w3.org/2000/svg">
<circle cx="33" cy="33" r="33" fill="#D9F4F9"/>
<g clip-path="url(#clip0_207_5215)">
<path d="M25.7344 19.7744C29.7546 15.9421 36.2484 15.9421 40.2686 19.7744C42.0501 21.4781 43.0774 23.7685 43.1445 26.1689V26.6504C43.0659 29.222 42.0686 31.6884 40.3262 33.6436L40.3271 33.6445L38.3477 35.9092H40.9727C41.3808 35.9092 41.7529 36.1454 41.9092 36.5107L45.0234 43.7529C45.0743 43.8714 45.0996 43.9975 45.0996 44.126C45.0995 44.6673 44.6414 45.0996 44.0869 45.0996H21.9121C21.8129 45.0996 21.7153 45.0867 21.6211 45.0596L21.5283 45.0273C21.0107 44.8241 20.7619 44.2561 20.9766 43.7539V43.7529L24.0889 36.5117L24.0869 36.5107C24.2431 36.1454 24.6154 35.9093 25.0234 35.9092H27.6523L25.6729 33.6445V33.6455C24.039 31.8125 23.0616 29.5292 22.8809 27.1318L22.8545 26.6504C22.7921 24.0767 23.8342 21.5916 25.7344 19.7744ZM23.4277 43.1514H42.5781L40.3027 37.8574H36.6465L33.7803 41.1338H33.7793C33.74 41.1782 33.7006 41.2164 33.6543 41.2539H33.6533C33.2254 41.5984 32.5869 41.5443 32.2266 41.1338L29.3594 37.8574H25.7031L23.4277 43.1514ZM38.8408 21.1533C35.6156 18.0705 30.393 18.071 27.168 21.1543L27.1387 21.1816H27.1377C24.0929 24.1301 24.115 28.8313 27.2266 32.3867L33.0029 38.9873L38.7803 32.3867C41.9011 28.8205 41.9136 24.101 38.8408 21.1543V21.1533ZM33 21.8096C35.7638 21.8097 38.0134 23.9307 38.0723 26.5752H38.0781V26.6758C38.078 29.3668 35.8016 31.5449 33.0029 31.5449C30.2045 31.5449 27.9248 29.37 27.9248 26.6787C27.9248 23.9876 30.2013 21.8096 33 21.8096ZM33 23.7578C31.3104 23.7578 29.9492 25.0675 29.9492 26.6758C29.9526 28.2811 31.314 29.5938 33 29.5938C34.6894 29.5937 36.0497 28.2839 36.0498 26.6758C36.0498 25.0675 34.6895 23.7579 33 23.7578Z" fill="#091E41" stroke="#091E41" stroke-width="0.2"/>
</g>
<defs>
<clipPath id="clip0_207_5215">
<rect width="24" height="28" fill="white" transform="translate(21 17)"/>
</clipPath>
</defs>
</svg>
