<svg width="20" height="20" viewBox="0 0 20 20" fill="none" xmlns="http://www.w3.org/2000/svg">
<g clip-path="url(#clip0_2002_4090)">
<path d="M10.8333 9.16667H13.7542C14.2125 9.16667 14.5833 9.5375 14.5833 10C14.5833 10.4625 14.2125 10.8333 13.7542 10.8333H10.8333V13.7542C10.8333 14.2125 10.4625 14.5833 10 14.5833C9.5375 14.5833 9.16667 14.2125 9.16667 13.7542V10.8333H6.24583C5.7875 10.8333 5.41667 10.4625 5.41667 10C5.41667 9.5375 5.7875 9.16667 6.24583 9.16667H9.16667V6.24583C9.16667 5.7875 9.5375 5.41667 10 5.41667C10.4625 5.41667 10.8333 5.7875 10.8333 6.24583V9.16667ZM10 20C4.47917 20 0 15.5208 0 10C0 4.47917 4.47917 0 10 0C15.5208 0 20 4.47917 20 10C20 15.5208 15.5208 20 10 20ZM10 18.3333C14.6042 18.3333 18.3333 14.6042 18.3333 10C18.3333 5.39583 14.6042 1.66667 10 1.66667C5.39583 1.66667 1.66667 5.39583 1.66667 10C1.66667 14.6042 5.39583 18.3333 10 18.3333Z" fill="#2A4E57"/>
</g>
<defs>
<clipPath id="clip0_2002_4090">
<rect width="20" height="20" fill="white"/>
</clipPath>
</defs>
</svg>
