<svg width="28" height="28" viewBox="0 0 28 28" fill="none" xmlns="http://www.w3.org/2000/svg">
<rect width="28" height="28" fill="white"/>
<path d="M11.8989 9.5664C11.8811 10.0479 11.5179 10.4377 11.0598 10.5871C9.0687 11.2361 7.62997 13.1083 7.62988 15.316C7.63001 18.0618 9.85567 20.2876 12.6016 20.2877C13.8007 20.2877 14.8999 19.8626 15.7583 19.1555C16.0826 18.8883 16.5239 18.7813 16.9121 18.9419L21.4825 20.8332C22.0471 21.0669 22.274 21.7504 21.9089 22.2405C19.7941 25.0787 16.413 26.9175 12.6016 26.9175C6.19434 26.9175 1.00015 21.7232 1 15.316C1.0001 9.43905 5.37015 4.58405 11.0379 3.82059C11.6158 3.74275 12.0968 4.22417 12.0752 4.80686L11.8989 9.5664Z" fill="#326789"/>
<path d="M14.3096 2C21.0689 2.00012 26.5488 7.4799 26.5488 14.2393C26.5488 16.1891 26.0908 18.0312 25.2791 19.6669C25.0574 20.1137 24.5224 20.2898 24.0616 20.0991L19.5429 18.2292C18.91 17.9672 18.7238 17.1523 19.0248 16.5368C19.364 15.8431 19.5547 15.0636 19.5547 14.2393C19.5547 11.3424 17.2065 8.99416 14.3096 8.99414C13.9026 8.99415 13.5432 8.67591 13.5582 8.26918L13.7699 2.53104C13.7807 2.2373 14.0156 2 14.3096 2Z" fill="#B5E6F3"/>
</svg>

