<svg width="42" height="42" viewBox="0 0 42 42" fill="none" xmlns="http://www.w3.org/2000/svg">
<path d="M23.042 8.9502C24.5518 8.95045 25.7802 10.1786 25.7803 11.6885C25.7803 11.9268 25.8892 12.1545 26.0732 12.2939L26.1562 12.3486L26.1582 12.3496C26.3934 12.4905 26.675 12.4906 26.9102 12.3496L26.9111 12.3486C27.5382 11.9777 28.2932 11.8754 28.9971 12.0674C29.701 12.2594 30.2894 12.7203 30.6602 13.3467L32.6836 16.8525H32.6826C33.4376 18.1579 32.9899 19.8338 31.6846 20.5889L31.6826 20.5898C31.4369 20.7187 31.295 20.9772 31.2949 21.249C31.2949 21.4866 31.4035 21.7054 31.5879 21.8428L31.6719 21.8965C32.9899 22.6515 33.438 24.3278 32.6836 25.6455V25.6465L30.6602 29.1514C30.2895 29.7777 29.701 30.2387 28.9971 30.4307C28.2929 30.6227 27.55 30.5206 26.9229 30.1494L26.9219 30.1484C26.569 29.925 26.0963 30.0294 25.8594 30.3838C25.7771 30.5131 25.7422 30.6548 25.7422 30.7969V30.7979C25.7166 32.2951 24.5009 33.4853 23.0039 33.4854H18.958C17.4482 33.4851 16.2198 32.2569 16.2197 30.7471C16.2197 30.4747 16.0777 30.2156 15.8438 30.0869L15.8418 30.0859C15.6066 29.945 15.3251 29.9449 15.0898 30.0859H15.0889C14.4617 30.4571 13.7069 30.5601 13.0029 30.3682C12.3869 30.2002 11.8599 29.8259 11.4893 29.3154L11.3398 29.0889L9.31641 25.583V25.582C8.56231 24.2768 9.01048 22.6015 10.3154 21.8467L10.3174 21.8457C10.5631 21.7169 10.705 21.4583 10.7051 21.1865C10.7051 20.949 10.5964 20.7302 10.4121 20.5928L10.3281 20.5391C9.00995 19.784 8.56157 18.1068 9.31641 16.7891L11.3398 13.2842L11.4893 13.0566C11.8598 12.5464 12.3871 12.1729 13.0029 12.0049L13.0049 12.0039C13.7082 11.8378 14.4633 11.9527 15.0781 12.3496L15.1455 12.3877C15.4893 12.5592 15.9186 12.4462 16.1406 12.1133C16.2226 11.9841 16.2578 11.843 16.2578 11.7012L16.2695 11.4219C16.3981 10.0413 17.5556 8.9503 18.9834 8.9502H23.042ZM18.958 10.9092C18.5462 10.9094 18.2043 11.2513 18.2041 11.6631C18.2041 12.6478 17.6929 13.5574 16.835 14.0439L16.834 14.043C15.9894 14.5415 14.9411 14.5418 14.0967 14.043H14.0957C13.7428 13.8314 13.2708 13.9483 13.0586 14.3008L11.0371 17.8066L11.0361 17.8076C10.8262 18.1577 10.9408 18.6103 11.2852 18.8125H11.2959L11.3076 18.8184C12.6126 19.5732 13.0736 21.25 12.3184 22.5557C12.0753 22.9778 11.7297 23.3233 11.3076 23.5664L11.3066 23.5674C10.9647 23.7549 10.8291 24.1694 10.9883 24.5215L11.0244 24.5908L13.0459 28.0957H13.0469C13.1524 28.2714 13.3164 28.3894 13.5059 28.4492C13.6954 28.4966 13.9068 28.4726 14.0693 28.3682L14.0713 28.3672C14.4935 28.1241 14.9798 27.9961 15.4658 27.9961C15.9523 27.9961 16.4131 28.1243 16.835 28.3672C17.6796 28.8535 18.2041 29.7617 18.2041 30.7344C18.2041 31.1588 18.534 31.4891 18.96 31.501H23.0039C23.4159 31.5009 23.7577 31.1591 23.7578 30.7471C23.7578 29.8239 24.2076 28.9673 24.9707 28.4629L25.1279 28.3662C25.9197 27.899 26.891 27.8701 27.7051 28.2793L27.8662 28.3672C28.2193 28.5791 28.6913 28.4614 28.9033 28.1084L30.9883 24.6035L30.9893 24.6025C31.1987 24.2529 31.0845 23.8012 30.7412 23.5986H30.7295L30.7178 23.5918C29.4128 22.837 28.9518 21.1602 29.707 19.8545C29.9501 19.4324 30.2956 19.0868 30.7178 18.8438L30.7832 18.8018C31.0966 18.5752 31.1873 18.1509 30.9893 17.8203L30.9883 17.8193L28.9033 14.3145C28.7976 14.1384 28.6332 14.0197 28.4434 13.96C28.254 13.9129 28.0423 13.9376 27.8799 14.042L27.8779 14.0439C26.6427 14.7513 25.0924 14.4018 24.2812 13.2695L24.1289 13.0322C23.8988 12.6232 23.7707 12.163 23.7578 11.6777V11.6758C23.7577 11.2515 23.4279 10.921 23.002 10.9092H18.958Z" fill="#42413B" stroke="#42413B" stroke-width="0.1"/>
<path d="M20.9808 16.4331C23.6089 16.4331 25.7424 18.5658 25.7426 21.1939C25.7426 23.8221 23.609 25.9556 20.9808 25.9556C18.3528 25.9555 16.2201 23.822 16.2201 21.1939C16.2202 18.5659 18.3528 16.4333 20.9808 16.4331ZM20.9808 18.4175C19.4508 18.4177 18.2046 19.6639 18.2045 21.1939C18.2045 22.724 19.4507 23.9711 20.9808 23.9712C22.5111 23.9712 23.7582 22.7241 23.7582 21.1939C23.758 19.6638 22.511 18.4175 20.9808 18.4175Z" fill="#42413B" stroke="#42413B" stroke-width="0.1"/>
</svg>

