<svg width="20" height="20" viewBox="0 0 20 20" fill="none" xmlns="http://www.w3.org/2000/svg">
<g clip-path="url(#clip0_2002_7157)">
<path d="M6.36364 18.1818H2.72727C2.22727 18.1818 1.81818 17.7727 1.81818 17.2727V13.6364C1.81818 13.1364 1.40909 12.7273 0.909091 12.7273C0.409091 12.7273 0 13.1364 0 13.6364V17.2727C0 18.7818 1.21818 20 2.72727 20H6.36364C6.86364 20 7.27273 19.5909 7.27273 19.0909C7.27273 18.5909 6.86364 18.1818 6.36364 18.1818ZM19.0909 12.7273C18.5909 12.7273 18.1818 13.1364 18.1818 13.6364V17.2727C18.1818 17.7727 17.7727 18.1818 17.2727 18.1818H13.6364C13.1364 18.1818 12.7273 18.5909 12.7273 19.0909C12.7273 19.5909 13.1364 20 13.6364 20H17.2727C18.7818 20 20 18.7818 20 17.2727V13.6364C20 13.1364 19.5909 12.7273 19.0909 12.7273ZM17.2727 0H13.6364C13.1364 0 12.7273 0.409091 12.7273 0.909091C12.7273 1.40909 13.1364 1.81818 13.6364 1.81818H17.2727C17.7727 1.81818 18.1818 2.22727 18.1818 2.72727V6.36364C18.1818 6.86364 18.5909 7.27273 19.0909 7.27273C19.5909 7.27273 20 6.86364 20 6.36364V2.72727C20 1.21818 18.7818 0 17.2727 0ZM0.909091 7.27273C1.40909 7.27273 1.81818 6.86364 1.81818 6.36364V2.72727C1.81818 2.22727 2.22727 1.81818 2.72727 1.81818H6.36364C6.86364 1.81818 7.27273 1.40909 7.27273 0.909091C7.27273 0.409091 6.86364 0 6.36364 0H2.72727C1.21818 0 0 1.21818 0 2.72727V6.36364C0 6.86364 0.409091 7.27273 0.909091 7.27273ZM8.18182 3.63636H4.54545C4.04545 3.63636 3.63636 4.04545 3.63636 4.54545V8.18182C3.63636 8.68182 4.04545 9.09091 4.54545 9.09091H8.18182C8.68182 9.09091 9.09091 8.68182 9.09091 8.18182V4.54545C9.09091 4.04545 8.68182 3.63636 8.18182 3.63636ZM7.27273 7.27273H5.45455V5.45455H7.27273V7.27273ZM11.8182 9.09091H15.4545C15.9545 9.09091 16.3636 8.68182 16.3636 8.18182V4.54545C16.3636 4.04545 15.9545 3.63636 15.4545 3.63636H11.8182C11.3182 3.63636 10.9091 4.04545 10.9091 4.54545V8.18182C10.9091 8.68182 11.3182 9.09091 11.8182 9.09091ZM12.7273 5.45455H14.5455V7.27273H12.7273V5.45455ZM8.18182 10.9091H4.54545C4.04545 10.9091 3.63636 11.3182 3.63636 11.8182V15.4545C3.63636 15.9545 4.04545 16.3636 4.54545 16.3636H8.18182C8.68182 16.3636 9.09091 15.9545 9.09091 15.4545V11.8182C9.09091 11.3182 8.68182 10.9091 8.18182 10.9091ZM7.27273 14.5455H5.45455V12.7273H7.27273V14.5455ZM11.8182 13.6364C12.3182 13.6364 12.7273 13.2273 12.7273 12.7273C13.2273 12.7273 13.6364 12.3182 13.6364 11.8182C13.6364 11.3182 13.2273 10.9091 12.7273 10.9091H11.8182C11.3182 10.9091 10.9091 11.3182 10.9091 11.8182V12.7273C10.9091 13.2273 11.3182 13.6364 11.8182 13.6364ZM15.4545 10.9091C14.9545 10.9091 14.5455 11.3182 14.5455 11.8182V14.5455C14.0455 14.5455 13.6364 14.9545 13.6364 15.4545C13.6364 15.9545 14.0455 16.3636 14.5455 16.3636H15.4545C15.9545 16.3636 16.3636 15.9545 16.3636 15.4545V11.8182C16.3636 11.3182 15.9545 10.9091 15.4545 10.9091ZM11.8182 14.5455C11.3182 14.5455 10.9091 14.9545 10.9091 15.4545C10.9091 15.9545 11.3182 16.3636 11.8182 16.3636C12.3182 16.3636 12.7273 15.9545 12.7273 15.4545C12.7273 14.9545 12.3182 14.5455 11.8182 14.5455Z" fill="#2A4E57"/>
</g>
<defs>
<clipPath id="clip0_2002_7157">
<rect width="20" height="20" fill="white"/>
</clipPath>
</defs>
</svg>
