<svg width="20" height="20" viewBox="0 0 20 20" fill="none" xmlns="http://www.w3.org/2000/svg">
<g clip-path="url(#clip0_2002_3931)">
<path fill-rule="evenodd" clip-rule="evenodd" d="M20 4.44444V15.5556C20 18.0089 18.0089 20 15.5556 20H4.44444C1.99111 20 0 18.0089 0 15.5556V4.44444C0 1.99111 1.99111 0 4.44444 0H15.5556C18.0089 0 20 1.99111 20 4.44444ZM17.7778 4.44444C17.7778 3.21778 16.7822 2.22222 15.5556 2.22222H4.44444C3.21778 2.22222 2.22222 3.21778 2.22222 4.44444V15.5556C2.22222 16.7822 3.21778 17.7778 4.44444 17.7778H15.5556C16.7822 17.7778 17.7778 16.7822 17.7778 15.5556V4.44444ZM6.66667 14.4427C6.66667 15.0578 6.16889 15.552 5.55733 15.552C4.94578 15.552 4.448 15.0542 4.448 14.4427V9.99822C4.448 9.38311 4.94578 8.88889 5.55733 8.88889C6.16889 8.88889 6.66667 9.38667 6.66667 9.99822V14.4427ZM11.1111 14.4427C11.1111 15.0578 10.6133 15.552 10.0018 15.552C9.39022 15.552 8.89244 15.0542 8.89244 14.4427V5.55378C8.89244 4.93867 9.39022 4.44444 10.0018 4.44444C10.6133 4.44444 11.1111 4.94222 11.1111 5.55378V14.4427ZM15.5556 14.4427C15.5556 15.0578 15.0578 15.552 14.4462 15.552C13.8347 15.552 13.3369 15.0542 13.3369 14.4427V12.2204C13.3369 11.6053 13.8347 11.1111 14.4462 11.1111C15.0578 11.1111 15.5556 11.6089 15.5556 12.2204V14.4427Z" fill="#2A4E57"/>
</g>
<defs>
<clipPath id="clip0_2002_3931">
<rect width="20" height="20" fill="white"/>
</clipPath>
</defs>
</svg>
