<svg width="42" height="42" viewBox="0 0 42 42" fill="none" xmlns="http://www.w3.org/2000/svg">
<path fill-rule="evenodd" clip-rule="evenodd" d="M31.3671 11.2458C31.7078 11.5698 31.7078 12.1061 31.3671 12.4302L28.8062 14.8659C30.627 16.229 32.0954 18.1508 32.9295 20.5978C33.0352 20.9106 33.0352 21.2458 32.9295 21.5587C30.2511 29.4804 21.0529 31.6816 14.721 28.2626L12.1131 30.743C11.7724 31.067 11.2085 31.067 10.8678 30.743C10.5272 30.419 10.5272 29.8827 10.8678 29.5587L13.746 26.8212C13.7929 26.7318 13.8517 26.6536 13.9222 26.5866L17.7518 22.9777C17.7518 22.9777 17.8223 22.8771 17.8693 22.8324C17.9163 22.7877 17.9633 22.7542 18.0103 22.7207L21.2526 19.6704L30.1219 11.2458C30.4625 10.9218 31.0264 10.9218 31.3671 11.2458ZM18.5859 24.5866L16.0132 27.0335C21.464 29.6704 28.9941 27.6592 31.2379 21.0894C30.4978 18.9106 29.1821 17.2458 27.5727 16.0838L24.6946 18.7989C25.141 19.4581 25.4112 20.2402 25.4112 21.0894C25.4112 23.4022 23.4376 25.2793 21.0059 25.2793C20.1131 25.2793 19.279 25.0223 18.5859 24.5978V24.5866ZM23.4023 20.0168C23.5668 20.3408 23.649 20.6983 23.649 21.0782C23.649 22.4637 22.4625 23.5922 21.0059 23.5922C20.6065 23.5922 20.2188 23.5028 19.8781 23.3575L22.5095 20.8547L23.4023 20.0056V20.0168ZM10.7621 21.0894C12.6417 15.5922 18.1865 13.2905 23.1674 14.2179C23.649 14.3073 24.1072 14.0056 24.2012 13.5587C24.2951 13.1006 23.978 12.6648 23.5081 12.5754C17.7636 11.5028 11.2555 14.1732 9.08222 20.6089C8.9765 20.9218 8.9765 21.257 9.08222 21.5698C9.54037 22.9441 10.21 24.1508 11.0323 25.1899C11.326 25.5587 11.8781 25.6369 12.2658 25.3575C12.6534 25.0782 12.7357 24.5531 12.442 24.1844C11.7489 23.3017 11.1733 22.2737 10.7739 21.0894H10.7621ZM18.3627 21.0894C18.3627 19.7039 19.5492 18.5754 21.0059 18.5754C21.4875 18.5754 21.8869 18.1955 21.8869 17.7374C21.8869 17.2793 21.4875 16.8994 21.0059 16.8994C18.5741 16.8994 16.6006 18.7765 16.6006 21.0894C16.6006 21.5475 17 21.9274 17.4816 21.9274C17.9633 21.9274 18.3627 21.5475 18.3627 21.0894Z" fill="#424242"/>
</svg>

