<svg width="154" height="35" viewBox="0 0 154 35" fill="none" xmlns="http://www.w3.org/2000/svg">
<path d="M0.000610352 0.271484L0.0486735 34.7114H4.85499L4.18744 9.24326H4.63069L6.98578 34.7114H13.4476L13.3728 0.271484H8.4704L9.26077 20.7517L8.61993 20.7891L6.9217 0.271484H0.000610352Z" fill="#0F2B4F"/>
<path d="M24.7735 0.271484H17.297C15.8925 0.271484 14.755 1.40898 14.755 2.81349V32.1694C14.755 33.5739 15.8925 34.7114 17.297 34.7114H24.7735C26.178 34.7114 27.3155 33.5739 27.3155 32.1694V2.81349C27.3155 1.40898 26.178 0.271484 24.7735 0.271484ZM21.6868 29.5045C21.6868 29.8677 21.3931 30.1561 21.0353 30.1561C20.6721 30.1561 20.3837 29.8623 20.3837 29.5045V5.59047C20.3837 5.22732 20.6774 4.93895 21.0353 4.93895C21.3984 4.93895 21.6868 5.23267 21.6868 5.59047V29.5045Z" fill="#0F2B4F"/>
<path d="M28.7106 0.271484L28.5664 34.7114H33.298L32.9936 7.16053H33.6344L35.37 34.7114H40.2724L41.9547 7.17655L42.5581 7.18189L42.1629 34.7114H47.0921L47.2416 0.271484H38.5475L38.195 19.8278H37.6397L36.9881 0.271484H28.7106Z" fill="#0F2B4F"/>
<path d="M59.267 0.0362549H49.3927L47.8494 34.7111H53.163L53.3499 23.3682H55.0482L55.1977 34.7111H61.0026L59.267 0.0362549ZM53.5208 18.1667L53.8199 4.7945H54.6263L54.9253 18.1667H53.5155H53.5208Z" fill="#0F2B4F"/>
<path d="M110.386 0.0362549H100.512L98.9685 34.7111H104.282L104.469 23.3682H106.167L106.317 34.7111H112.122L110.386 0.0362549ZM104.64 18.1667L104.939 4.7945H105.745L106.044 18.1667H104.635H104.64Z" fill="#0F2B4F"/>
<path d="M71.5612 0H61.6068L61.8097 34.7122H71.5612C71.5612 34.7122 73.8736 34.504 74.1726 31.5614V2.89447C74.1726 2.89447 74.3756 0.14953 71.5612 0ZM68.8857 29.3933C68.4318 30.8031 67.0753 30.1623 67.0753 30.1623V4.80097C68.7362 4.38442 68.8857 5.71951 68.8857 5.71951V29.3933Z" fill="#0F2B4F"/>
<path d="M80.8545 0.0362549L82.8144 34.7111H89.148L89.853 13.008L90.4404 13.0133L91.124 34.7111H97.3775L98.9636 0.0362549H94.4403L94.3656 19.4644H93.5325L92.8756 0.0362549H87.8984L86.841 19.3416H86.1414L86.291 0.0362549H80.8545Z" fill="#0F2B4F"/>
<path d="M122.55 0.0362549V34.7111H131.297V28.4896L127.58 28.3882L127.677 0.0362549H122.55Z" fill="#0F2B4F"/>
<path d="M112.962 0.0217896V34.6967H121.704V28.4752L117.987 28.3737L118.089 0.0217896H112.962Z" fill="#0F2B4F"/>
<path d="M141.55 0.0362549H132.301V34.7111H141.951V29.0931H137.93L137.834 18.8396H141.075V13.323L137.754 13.3391V5.64896L141.449 5.57419L141.55 0.0362549Z" fill="#0F2B4F"/>
<path d="M142.378 0.0576163V6.51409H145.096V34.7111H150.725V6.51409L153.539 6.40729V0.0362549L142.378 0.0576163Z" fill="#0F2B4F"/>
</svg>

